<mxfile host="app.diagrams.net" modified="2023-04-18T03:23:58.297Z" agent="Mozilla/5.0 (Macintosh; Intel Mac OS X 10_15_7) AppleWebKit/537.36 (KHTML, like Gecko) Chrome/112.0.0.0 Safari/537.36 Edg/112.0.1722.48" etag="vjQU3v31uvB1f7aKm71D" version="21.1.7" type="github">
  <diagram name="Page-1" id="Yt4kaTD9RTR4efS5Gy3K">
    <mxGraphModel dx="1855" dy="1087" grid="0" gridSize="10" guides="1" tooltips="1" connect="1" arrows="1" fold="1" page="1" pageScale="1" pageWidth="850" pageHeight="1100" math="0" shadow="0">
      <root>
        <mxCell id="0" />
        <mxCell id="1" parent="0" />
        <mxCell id="jmJA5LSK7QcHxx7J2Bmm-34" value="" style="rounded=0;whiteSpace=wrap;html=1;dashed=1;fillColor=#f5f5f5;fontColor=#333333;strokeColor=#666666;" vertex="1" parent="1">
          <mxGeometry x="59" y="1280" width="719" height="480" as="geometry" />
        </mxCell>
        <mxCell id="jmJA5LSK7QcHxx7J2Bmm-15" value="" style="rounded=0;whiteSpace=wrap;html=1;dashed=1;strokeColor=#666666;fillColor=#f5f5f5;fontColor=#333333;strokeWidth=1;" vertex="1" parent="1">
          <mxGeometry x="25" y="12" width="703" height="510" as="geometry" />
        </mxCell>
        <mxCell id="jmJA5LSK7QcHxx7J2Bmm-1" value="&lt;div style=&quot;box-sizing:border-box;width:100%;background:#e4e4e4;padding:2px;&quot;&gt;&lt;b&gt;investor_profile_meta_individual&lt;/b&gt;&lt;/div&gt;&lt;table style=&quot;width:100%;font-size:1em;&quot; cellpadding=&quot;2&quot; cellspacing=&quot;0&quot;&gt;&lt;tbody&gt;&lt;tr&gt;&lt;td&gt;PK&lt;/td&gt;&lt;td&gt;id&amp;nbsp; &amp;nbsp; &amp;nbsp; &amp;nbsp; &amp;nbsp; &amp;nbsp; &amp;nbsp; &amp;nbsp; &amp;nbsp; &amp;nbsp; &amp;nbsp; &amp;nbsp;bigint&lt;/td&gt;&lt;/tr&gt;&lt;tr&gt;&lt;td&gt;&lt;font color=&quot;#ff0f0f&quot;&gt;&lt;br&gt;&lt;/font&gt;&lt;/td&gt;&lt;td&gt;&lt;font color=&quot;#ff0f0f&quot;&gt;date_of_birth&amp;nbsp; &amp;nbsp; &amp;nbsp;bigint&lt;/font&gt;&lt;/td&gt;&lt;/tr&gt;&lt;tr&gt;&lt;td&gt;&lt;/td&gt;&lt;td&gt;...&lt;/td&gt;&lt;/tr&gt;&lt;/tbody&gt;&lt;/table&gt;" style="verticalAlign=top;align=left;overflow=fill;html=1;whiteSpace=wrap;perimeterSpacing=1;" vertex="1" parent="1">
          <mxGeometry x="80" y="220" width="230" height="100" as="geometry" />
        </mxCell>
        <mxCell id="jmJA5LSK7QcHxx7J2Bmm-2" value="&lt;div style=&quot;box-sizing:border-box;width:100%;background:#e4e4e4;padding:2px;&quot;&gt;&lt;b&gt;investor_profile_meta_entity&lt;/b&gt;&lt;br&gt;&lt;/div&gt;&lt;table style=&quot;width:100%;font-size:1em;&quot; cellpadding=&quot;2&quot; cellspacing=&quot;0&quot;&gt;&lt;tbody&gt;&lt;tr&gt;&lt;td&gt;PK&lt;/td&gt;&lt;td&gt;id&amp;nbsp; &amp;nbsp; &amp;nbsp; &amp;nbsp; &amp;nbsp; &amp;nbsp; &amp;nbsp; &amp;nbsp; &amp;nbsp; &amp;nbsp; &amp;nbsp; &amp;nbsp; &amp;nbsp; &amp;nbsp; &amp;nbsp; &amp;nbsp; &amp;nbsp; &amp;nbsp; &amp;nbsp;bigint&lt;/td&gt;&lt;/tr&gt;&lt;tr&gt;&lt;td&gt;&lt;font color=&quot;#ff0303&quot;&gt;&lt;br&gt;&lt;/font&gt;&lt;/td&gt;&lt;td&gt;&lt;font color=&quot;#ff0303&quot;&gt;date_of_incorporation&amp;nbsp; &amp;nbsp; &amp;nbsp;bigint&lt;/font&gt;&lt;/td&gt;&lt;/tr&gt;&lt;tr&gt;&lt;td&gt;&lt;/td&gt;&lt;td&gt;...&lt;/td&gt;&lt;/tr&gt;&lt;/tbody&gt;&lt;/table&gt;" style="verticalAlign=top;align=left;overflow=fill;html=1;whiteSpace=wrap;" vertex="1" parent="1">
          <mxGeometry x="410" y="220" width="230" height="100" as="geometry" />
        </mxCell>
        <mxCell id="jmJA5LSK7QcHxx7J2Bmm-6" value="&lt;div style=&quot;box-sizing:border-box;width:100%;background:#e4e4e4;padding:2px;&quot;&gt;&lt;b&gt;investors&lt;/b&gt;&lt;br&gt;&lt;/div&gt;&lt;table style=&quot;width:100%;font-size:1em;&quot; cellpadding=&quot;2&quot; cellspacing=&quot;0&quot;&gt;&lt;tbody&gt;&lt;tr&gt;&lt;td&gt;PK&lt;/td&gt;&lt;td&gt;id&amp;nbsp; &amp;nbsp; &amp;nbsp; &amp;nbsp; &amp;nbsp; &amp;nbsp; &amp;nbsp; &amp;nbsp; &amp;nbsp; &amp;nbsp; &amp;nbsp; &amp;nbsp; &amp;nbsp; &amp;nbsp; &amp;nbsp; &amp;nbsp; &amp;nbsp; &amp;nbsp; &amp;nbsp;bigint&lt;/td&gt;&lt;/tr&gt;&lt;tr&gt;&lt;td&gt;&lt;font color=&quot;#ff0303&quot;&gt;&lt;br&gt;&lt;/font&gt;&lt;/td&gt;&lt;td&gt;&lt;font color=&quot;#ff0303&quot;&gt;&amp;nbsp;date_of_incorporation&amp;nbsp; &amp;nbsp; bigint&lt;br&gt;&lt;/font&gt;&lt;table style=&quot;border-color: var(--border-color); font-size: 1em; width: 230px;&quot; cellpadding=&quot;2&quot; cellspacing=&quot;0&quot;&gt;&lt;tbody style=&quot;border-color: var(--border-color);&quot;&gt;&lt;tr style=&quot;border-color: var(--border-color);&quot;&gt;&lt;td style=&quot;border-color: var(--border-color);&quot;&gt;&lt;font style=&quot;border-color: var(--border-color);&quot; color=&quot;#ff0f0f&quot;&gt;date_of_birth&amp;nbsp; &amp;nbsp; &amp;nbsp; &amp;nbsp; &amp;nbsp; &amp;nbsp; &amp;nbsp; &amp;nbsp; &amp;nbsp; bigint&lt;/font&gt;&lt;/td&gt;&lt;/tr&gt;&lt;/tbody&gt;&lt;/table&gt;&lt;/td&gt;&lt;/tr&gt;&lt;tr&gt;&lt;td&gt;&lt;/td&gt;&lt;td&gt;...&lt;/td&gt;&lt;/tr&gt;&lt;/tbody&gt;&lt;/table&gt;" style="verticalAlign=top;align=left;overflow=fill;html=1;whiteSpace=wrap;" vertex="1" parent="1">
          <mxGeometry x="260" y="30" width="230" height="100" as="geometry" />
        </mxCell>
        <mxCell id="jmJA5LSK7QcHxx7J2Bmm-14" value="&lt;div style=&quot;box-sizing:border-box;width:100%;background:#e4e4e4;padding:2px;&quot;&gt;&lt;b&gt;investor_profile_meta_info_certificate&lt;/b&gt;&lt;br&gt;&lt;/div&gt;&lt;table style=&quot;width:100%;font-size:1em;&quot; cellpadding=&quot;2&quot; cellspacing=&quot;0&quot;&gt;&lt;tbody&gt;&lt;tr&gt;&lt;td&gt;PK&lt;/td&gt;&lt;td&gt;id&amp;nbsp; &amp;nbsp; &amp;nbsp; &amp;nbsp; &amp;nbsp; &amp;nbsp; &amp;nbsp; &amp;nbsp; &amp;nbsp; &amp;nbsp; &amp;nbsp; &amp;nbsp;bigint&lt;/td&gt;&lt;/tr&gt;&lt;tr&gt;&lt;td&gt;&lt;font color=&quot;#ff0f0f&quot;&gt;&lt;br&gt;&lt;/font&gt;&lt;/td&gt;&lt;td&gt;&lt;font color=&quot;#ff0f0f&quot;&gt;expired_date&amp;nbsp; &amp;nbsp; &amp;nbsp;bigint&lt;/font&gt;&lt;/td&gt;&lt;/tr&gt;&lt;tr&gt;&lt;td&gt;&lt;/td&gt;&lt;td&gt;...&lt;/td&gt;&lt;/tr&gt;&lt;/tbody&gt;&lt;/table&gt;" style="verticalAlign=top;align=left;overflow=fill;html=1;whiteSpace=wrap;perimeterSpacing=1;" vertex="1" parent="1">
          <mxGeometry x="80" y="390" width="230" height="100" as="geometry" />
        </mxCell>
        <mxCell id="jmJA5LSK7QcHxx7J2Bmm-16" value="Tables" style="text;html=1;strokeColor=none;fillColor=none;align=center;verticalAlign=middle;whiteSpace=wrap;rounded=0;fontStyle=1" vertex="1" parent="1">
          <mxGeometry x="29" y="16" width="60" height="30" as="geometry" />
        </mxCell>
        <mxCell id="jmJA5LSK7QcHxx7J2Bmm-17" value="" style="rounded=0;whiteSpace=wrap;html=1;fillColor=#ffe6cc;strokeColor=#d79b00;dashed=1;" vertex="1" parent="1">
          <mxGeometry x="163" y="1612" width="539" height="90" as="geometry" />
        </mxCell>
        <mxCell id="jmJA5LSK7QcHxx7J2Bmm-18" value="" style="rounded=0;whiteSpace=wrap;html=1;fillColor=#e1d5e7;strokeColor=#9673a6;dashed=1;" vertex="1" parent="1">
          <mxGeometry x="163" y="1511" width="540" height="84" as="geometry" />
        </mxCell>
        <mxCell id="jmJA5LSK7QcHxx7J2Bmm-22" value="" style="rounded=0;whiteSpace=wrap;html=1;" vertex="1" parent="1">
          <mxGeometry x="220" y="558" width="120" height="60" as="geometry" />
        </mxCell>
        <mxCell id="jmJA5LSK7QcHxx7J2Bmm-40" value="" style="edgeStyle=orthogonalEdgeStyle;rounded=0;orthogonalLoop=1;jettySize=auto;html=1;" edge="1" parent="1" source="jmJA5LSK7QcHxx7J2Bmm-24" target="jmJA5LSK7QcHxx7J2Bmm-27">
          <mxGeometry relative="1" as="geometry">
            <Array as="points">
              <mxPoint x="451" y="1615" />
              <mxPoint x="451" y="1615" />
            </Array>
          </mxGeometry>
        </mxCell>
        <mxCell id="jmJA5LSK7QcHxx7J2Bmm-24" value="Modify Column Type for Tables&lt;br style=&quot;border-color: var(--border-color);&quot;&gt;(bigint--&amp;gt;varchar)&amp;nbsp;" style="rounded=1;whiteSpace=wrap;html=1;" vertex="1" parent="1">
          <mxGeometry x="330" y="1625" width="244.5" height="61" as="geometry" />
        </mxCell>
        <mxCell id="jmJA5LSK7QcHxx7J2Bmm-25" value="DB Layer" style="text;html=1;strokeColor=none;fillColor=none;align=center;verticalAlign=middle;whiteSpace=wrap;rounded=0;fontStyle=1;fontSize=14;" vertex="1" parent="1">
          <mxGeometry x="169" y="1618" width="75" height="30" as="geometry" />
        </mxCell>
        <mxCell id="jmJA5LSK7QcHxx7J2Bmm-28" value="DAO Layer" style="text;html=1;strokeColor=none;fillColor=none;align=center;verticalAlign=middle;whiteSpace=wrap;rounded=0;fontStyle=1;fontSize=14;" vertex="1" parent="1">
          <mxGeometry x="163" y="1511" width="91" height="30" as="geometry" />
        </mxCell>
        <mxCell id="jmJA5LSK7QcHxx7J2Bmm-29" value="" style="rounded=0;whiteSpace=wrap;html=1;fillColor=#d5e8d4;strokeColor=#82b366;dashed=1;" vertex="1" parent="1">
          <mxGeometry x="163" y="1408" width="540" height="84" as="geometry" />
        </mxCell>
        <mxCell id="jmJA5LSK7QcHxx7J2Bmm-35" value="Backend" style="text;html=1;strokeColor=none;fillColor=none;align=center;verticalAlign=middle;whiteSpace=wrap;rounded=0;fontStyle=1" vertex="1" parent="1">
          <mxGeometry x="62" y="1284" width="60" height="30" as="geometry" />
        </mxCell>
        <mxCell id="jmJA5LSK7QcHxx7J2Bmm-36" value="Service Layer" style="text;html=1;strokeColor=none;fillColor=none;align=center;verticalAlign=middle;whiteSpace=wrap;rounded=0;fontStyle=1;fontSize=14;" vertex="1" parent="1">
          <mxGeometry x="170.5" y="1410" width="99" height="30" as="geometry" />
        </mxCell>
        <mxCell id="jmJA5LSK7QcHxx7J2Bmm-37" value="" style="rounded=0;whiteSpace=wrap;html=1;fillColor=#dae8fc;strokeColor=#6c8ebf;dashed=1;" vertex="1" parent="1">
          <mxGeometry x="163" y="1306" width="540" height="84" as="geometry" />
        </mxCell>
        <mxCell id="jmJA5LSK7QcHxx7J2Bmm-38" value="Facade Layer" style="text;html=1;strokeColor=none;fillColor=none;align=center;verticalAlign=middle;whiteSpace=wrap;rounded=0;fontStyle=1;fontSize=14;" vertex="1" parent="1">
          <mxGeometry x="169" y="1314" width="102" height="30" as="geometry" />
        </mxCell>
        <mxCell id="jmJA5LSK7QcHxx7J2Bmm-39" value="Dynamically convert timestamp into date&lt;br&gt;&lt;font style=&quot;font-size: 11px;&quot;&gt;（based on the client&#39;s time zone）&lt;/font&gt;" style="rounded=1;whiteSpace=wrap;html=1;" vertex="1" parent="1">
          <mxGeometry x="332.5" y="1314" width="242" height="60" as="geometry" />
        </mxCell>
        <mxCell id="jmJA5LSK7QcHxx7J2Bmm-41" value="" style="edgeStyle=orthogonalEdgeStyle;rounded=0;orthogonalLoop=1;jettySize=auto;html=1;" edge="1" parent="1" source="jmJA5LSK7QcHxx7J2Bmm-27" target="jmJA5LSK7QcHxx7J2Bmm-33">
          <mxGeometry relative="1" as="geometry" />
        </mxCell>
        <mxCell id="jmJA5LSK7QcHxx7J2Bmm-27" value="Modify Attribute Type for Classes&lt;br&gt;(Long--&amp;gt;String)" style="rounded=1;whiteSpace=wrap;html=1;" vertex="1" parent="1">
          <mxGeometry x="330" y="1520" width="242" height="60" as="geometry" />
        </mxCell>
        <mxCell id="jmJA5LSK7QcHxx7J2Bmm-33" value="No modifications made" style="rounded=1;whiteSpace=wrap;html=1;dashed=1;fillColor=#f5f5f5;fontColor=#333333;strokeColor=#666666;" vertex="1" parent="1">
          <mxGeometry x="330" y="1420" width="242" height="60" as="geometry" />
        </mxCell>
        <mxCell id="jmJA5LSK7QcHxx7J2Bmm-42" value="" style="endArrow=classic;html=1;rounded=0;exitX=0.5;exitY=0;exitDx=0;exitDy=0;" edge="1" parent="1" source="jmJA5LSK7QcHxx7J2Bmm-33">
          <mxGeometry width="50" height="50" relative="1" as="geometry">
            <mxPoint x="451" y="1433" as="sourcePoint" />
            <mxPoint x="451" y="1372" as="targetPoint" />
          </mxGeometry>
        </mxCell>
        <mxCell id="jmJA5LSK7QcHxx7J2Bmm-44" value="" style="rounded=0;whiteSpace=wrap;html=1;dashed=1;fillColor=#f5f5f5;fontColor=#333333;strokeColor=#666666;" vertex="1" parent="1">
          <mxGeometry x="59" y="1132" width="719" height="127" as="geometry" />
        </mxCell>
        <mxCell id="jmJA5LSK7QcHxx7J2Bmm-45" value="Frontend" style="text;html=1;strokeColor=none;fillColor=none;align=center;verticalAlign=middle;whiteSpace=wrap;rounded=0;fontStyle=1" vertex="1" parent="1">
          <mxGeometry x="65" y="1142" width="60" height="30" as="geometry" />
        </mxCell>
        <mxCell id="jmJA5LSK7QcHxx7J2Bmm-46" value="" style="rounded=0;whiteSpace=wrap;html=1;fillColor=#fff2cc;strokeColor=#d6b656;dashed=1;" vertex="1" parent="1">
          <mxGeometry x="160" y="1147" width="540" height="96" as="geometry" />
        </mxCell>
        <mxCell id="jmJA5LSK7QcHxx7J2Bmm-47" value="Page Layer" style="text;html=1;strokeColor=none;fillColor=none;align=center;verticalAlign=middle;whiteSpace=wrap;rounded=0;fontStyle=1;fontSize=14;" vertex="1" parent="1">
          <mxGeometry x="161" y="1146" width="91" height="30" as="geometry" />
        </mxCell>
        <mxCell id="jmJA5LSK7QcHxx7J2Bmm-50" value="" style="rounded=0;whiteSpace=wrap;html=1;dashed=1;" vertex="1" parent="1">
          <mxGeometry x="283.5" y="1154" width="312.5" height="72" as="geometry" />
        </mxCell>
        <mxCell id="jmJA5LSK7QcHxx7J2Bmm-49" value="Components" style="text;html=1;strokeColor=none;fillColor=none;align=center;verticalAlign=middle;whiteSpace=wrap;rounded=0;fontSize=12;fontStyle=1" vertex="1" parent="1">
          <mxGeometry x="296" y="1150" width="60" height="30" as="geometry" />
        </mxCell>
        <mxCell id="jmJA5LSK7QcHxx7J2Bmm-31" value="" style="html=1;shadow=0;dashed=0;align=center;verticalAlign=middle;shape=mxgraph.arrows2.arrow;dy=0.83;dx=33;direction=north;notch=0;" vertex="1" parent="1">
          <mxGeometry x="122" y="1180" width="29" height="526" as="geometry" />
        </mxCell>
        <mxCell id="jmJA5LSK7QcHxx7J2Bmm-56" value="DatePicker" style="rounded=1;whiteSpace=wrap;html=1;fillColor=#dae8fc;gradientColor=#7ea6e0;strokeColor=#6c8ebf;" vertex="1" parent="1">
          <mxGeometry x="300" y="1180" width="115" height="28" as="geometry" />
        </mxCell>
        <mxCell id="jmJA5LSK7QcHxx7J2Bmm-57" value="DateLabel" style="rounded=1;whiteSpace=wrap;html=1;fillColor=#d5e8d4;gradientColor=#97d077;strokeColor=#82b366;" vertex="1" parent="1">
          <mxGeometry x="468" y="1180" width="115" height="28" as="geometry" />
        </mxCell>
        <mxCell id="jmJA5LSK7QcHxx7J2Bmm-58" style="edgeStyle=orthogonalEdgeStyle;rounded=0;orthogonalLoop=1;jettySize=auto;html=1;" edge="1" parent="1" source="jmJA5LSK7QcHxx7J2Bmm-39" target="jmJA5LSK7QcHxx7J2Bmm-46">
          <mxGeometry relative="1" as="geometry">
            <Array as="points">
              <mxPoint x="454" y="1258" />
              <mxPoint x="454" y="1258" />
            </Array>
          </mxGeometry>
        </mxCell>
        <mxCell id="jmJA5LSK7QcHxx7J2Bmm-59" value="formatted" style="edgeLabel;html=1;align=center;verticalAlign=middle;resizable=0;points=[];" vertex="1" connectable="0" parent="jmJA5LSK7QcHxx7J2Bmm-58">
          <mxGeometry x="0.171" y="1" relative="1" as="geometry">
            <mxPoint y="-4" as="offset" />
          </mxGeometry>
        </mxCell>
        <mxCell id="jmJA5LSK7QcHxx7J2Bmm-61" value="Data Flow" style="text;html=1;strokeColor=none;fillColor=none;align=center;verticalAlign=middle;whiteSpace=wrap;rounded=0;fontStyle=1" vertex="1" parent="1">
          <mxGeometry x="106.5" y="1710" width="60" height="30" as="geometry" />
        </mxCell>
        <mxCell id="jmJA5LSK7QcHxx7J2Bmm-62" value="" style="rounded=0;whiteSpace=wrap;html=1;dashed=1;fillColor=#f5f5f5;fontColor=#333333;strokeColor=#666666;" vertex="1" parent="1">
          <mxGeometry x="48" y="2424" width="719" height="480" as="geometry" />
        </mxCell>
        <mxCell id="jmJA5LSK7QcHxx7J2Bmm-63" value="" style="rounded=0;whiteSpace=wrap;html=1;fillColor=#ffe6cc;strokeColor=#d79b00;dashed=1;" vertex="1" parent="1">
          <mxGeometry x="152" y="2756" width="539" height="90" as="geometry" />
        </mxCell>
        <mxCell id="jmJA5LSK7QcHxx7J2Bmm-64" value="" style="rounded=0;whiteSpace=wrap;html=1;fillColor=#e1d5e7;strokeColor=#9673a6;dashed=1;" vertex="1" parent="1">
          <mxGeometry x="152" y="2655" width="540" height="84" as="geometry" />
        </mxCell>
        <mxCell id="jmJA5LSK7QcHxx7J2Bmm-66" value="No modifications made" style="rounded=1;whiteSpace=wrap;html=1;fillColor=#eeeeee;strokeColor=#36393d;dashed=1;" vertex="1" parent="1">
          <mxGeometry x="319" y="2769" width="244.5" height="61" as="geometry" />
        </mxCell>
        <mxCell id="jmJA5LSK7QcHxx7J2Bmm-67" value="DB Layer" style="text;html=1;strokeColor=none;fillColor=none;align=center;verticalAlign=middle;whiteSpace=wrap;rounded=0;fontStyle=1;fontSize=14;" vertex="1" parent="1">
          <mxGeometry x="158" y="2762" width="75" height="30" as="geometry" />
        </mxCell>
        <mxCell id="jmJA5LSK7QcHxx7J2Bmm-68" value="DAO Layer" style="text;html=1;strokeColor=none;fillColor=none;align=center;verticalAlign=middle;whiteSpace=wrap;rounded=0;fontStyle=1;fontSize=14;" vertex="1" parent="1">
          <mxGeometry x="152" y="2655" width="91" height="30" as="geometry" />
        </mxCell>
        <mxCell id="jmJA5LSK7QcHxx7J2Bmm-69" value="" style="rounded=0;whiteSpace=wrap;html=1;fillColor=#d5e8d4;strokeColor=#82b366;dashed=1;" vertex="1" parent="1">
          <mxGeometry x="152" y="2552" width="540" height="84" as="geometry" />
        </mxCell>
        <mxCell id="jmJA5LSK7QcHxx7J2Bmm-70" value="Backend" style="text;html=1;strokeColor=none;fillColor=none;align=center;verticalAlign=middle;whiteSpace=wrap;rounded=0;fontStyle=1" vertex="1" parent="1">
          <mxGeometry x="51" y="2428" width="60" height="30" as="geometry" />
        </mxCell>
        <mxCell id="jmJA5LSK7QcHxx7J2Bmm-71" value="Service Layer" style="text;html=1;strokeColor=none;fillColor=none;align=center;verticalAlign=middle;whiteSpace=wrap;rounded=0;fontStyle=1;fontSize=14;" vertex="1" parent="1">
          <mxGeometry x="159.5" y="2554" width="99" height="30" as="geometry" />
        </mxCell>
        <mxCell id="jmJA5LSK7QcHxx7J2Bmm-72" value="" style="rounded=0;whiteSpace=wrap;html=1;fillColor=#dae8fc;strokeColor=#6c8ebf;dashed=1;" vertex="1" parent="1">
          <mxGeometry x="152" y="2450" width="540" height="84" as="geometry" />
        </mxCell>
        <mxCell id="jmJA5LSK7QcHxx7J2Bmm-73" value="Facade Layer" style="text;html=1;strokeColor=none;fillColor=none;align=center;verticalAlign=middle;whiteSpace=wrap;rounded=0;fontStyle=1;fontSize=14;" vertex="1" parent="1">
          <mxGeometry x="158" y="2458" width="102" height="30" as="geometry" />
        </mxCell>
        <mxCell id="jmJA5LSK7QcHxx7J2Bmm-95" style="edgeStyle=orthogonalEdgeStyle;rounded=0;orthogonalLoop=1;jettySize=auto;html=1;" edge="1" parent="1" source="jmJA5LSK7QcHxx7J2Bmm-74" target="jmJA5LSK7QcHxx7J2Bmm-77">
          <mxGeometry relative="1" as="geometry">
            <Array as="points">
              <mxPoint x="443" y="2541" />
              <mxPoint x="443" y="2541" />
            </Array>
          </mxGeometry>
        </mxCell>
        <mxCell id="jmJA5LSK7QcHxx7J2Bmm-74" value="No modifications made" style="rounded=1;whiteSpace=wrap;html=1;dashed=1;fillColor=#eeeeee;strokeColor=#36393d;" vertex="1" parent="1">
          <mxGeometry x="321.5" y="2458" width="242" height="60" as="geometry" />
        </mxCell>
        <mxCell id="jmJA5LSK7QcHxx7J2Bmm-97" style="edgeStyle=orthogonalEdgeStyle;rounded=0;orthogonalLoop=1;jettySize=auto;html=1;" edge="1" parent="1" source="jmJA5LSK7QcHxx7J2Bmm-77" target="jmJA5LSK7QcHxx7J2Bmm-76">
          <mxGeometry relative="1" as="geometry" />
        </mxCell>
        <mxCell id="jmJA5LSK7QcHxx7J2Bmm-77" value="No modifications made" style="rounded=1;whiteSpace=wrap;html=1;dashed=1;fillColor=#f5f5f5;fontColor=#333333;strokeColor=#666666;" vertex="1" parent="1">
          <mxGeometry x="319" y="2564" width="242" height="60" as="geometry" />
        </mxCell>
        <mxCell id="jmJA5LSK7QcHxx7J2Bmm-79" value="" style="rounded=0;whiteSpace=wrap;html=1;dashed=1;fillColor=#f5f5f5;fontColor=#333333;strokeColor=#666666;" vertex="1" parent="1">
          <mxGeometry x="48" y="2276" width="719" height="127" as="geometry" />
        </mxCell>
        <mxCell id="jmJA5LSK7QcHxx7J2Bmm-80" value="Frontend" style="text;html=1;strokeColor=none;fillColor=none;align=center;verticalAlign=middle;whiteSpace=wrap;rounded=0;fontStyle=1" vertex="1" parent="1">
          <mxGeometry x="54" y="2286" width="60" height="30" as="geometry" />
        </mxCell>
        <mxCell id="jmJA5LSK7QcHxx7J2Bmm-93" style="edgeStyle=orthogonalEdgeStyle;rounded=0;orthogonalLoop=1;jettySize=auto;html=1;" edge="1" parent="1" source="jmJA5LSK7QcHxx7J2Bmm-81" target="jmJA5LSK7QcHxx7J2Bmm-74">
          <mxGeometry relative="1" as="geometry">
            <Array as="points">
              <mxPoint x="439" y="2397" />
              <mxPoint x="439" y="2397" />
            </Array>
          </mxGeometry>
        </mxCell>
        <mxCell id="jmJA5LSK7QcHxx7J2Bmm-94" value="Submit formatted date" style="edgeLabel;html=1;align=center;verticalAlign=middle;resizable=0;points=[];" vertex="1" connectable="0" parent="jmJA5LSK7QcHxx7J2Bmm-93">
          <mxGeometry x="-0.1549" y="1" relative="1" as="geometry">
            <mxPoint y="-5" as="offset" />
          </mxGeometry>
        </mxCell>
        <mxCell id="jmJA5LSK7QcHxx7J2Bmm-81" value="" style="rounded=0;whiteSpace=wrap;html=1;fillColor=#fff2cc;strokeColor=#d6b656;dashed=1;" vertex="1" parent="1">
          <mxGeometry x="149" y="2291" width="540" height="96" as="geometry" />
        </mxCell>
        <mxCell id="jmJA5LSK7QcHxx7J2Bmm-82" value="Page Layer" style="text;html=1;strokeColor=none;fillColor=none;align=center;verticalAlign=middle;whiteSpace=wrap;rounded=0;fontStyle=1;fontSize=14;" vertex="1" parent="1">
          <mxGeometry x="150" y="2290" width="91" height="30" as="geometry" />
        </mxCell>
        <mxCell id="jmJA5LSK7QcHxx7J2Bmm-83" value="" style="rounded=0;whiteSpace=wrap;html=1;dashed=1;" vertex="1" parent="1">
          <mxGeometry x="272.5" y="2298" width="312.5" height="72" as="geometry" />
        </mxCell>
        <mxCell id="jmJA5LSK7QcHxx7J2Bmm-84" value="Components" style="text;html=1;strokeColor=none;fillColor=none;align=center;verticalAlign=middle;whiteSpace=wrap;rounded=0;fontSize=12;fontStyle=1" vertex="1" parent="1">
          <mxGeometry x="285" y="2294" width="60" height="30" as="geometry" />
        </mxCell>
        <mxCell id="jmJA5LSK7QcHxx7J2Bmm-85" value="" style="html=1;shadow=0;dashed=0;align=center;verticalAlign=middle;shape=mxgraph.arrows2.arrow;dy=0.83;dx=33;direction=north;notch=0;rotation=-180;" vertex="1" parent="1">
          <mxGeometry x="111" y="2329" width="29" height="526" as="geometry" />
        </mxCell>
        <mxCell id="jmJA5LSK7QcHxx7J2Bmm-86" value="DatePicker" style="rounded=1;whiteSpace=wrap;html=1;fillColor=#dae8fc;gradientColor=#7ea6e0;strokeColor=#6c8ebf;" vertex="1" parent="1">
          <mxGeometry x="289" y="2324" width="115" height="28" as="geometry" />
        </mxCell>
        <mxCell id="jmJA5LSK7QcHxx7J2Bmm-90" value="Data Flow" style="text;html=1;strokeColor=none;fillColor=none;align=center;verticalAlign=middle;whiteSpace=wrap;rounded=0;fontStyle=1" vertex="1" parent="1">
          <mxGeometry x="95.5" y="2854" width="60" height="30" as="geometry" />
        </mxCell>
        <mxCell id="jmJA5LSK7QcHxx7J2Bmm-76" value="No modifications made" style="rounded=1;whiteSpace=wrap;html=1;dashed=1;fillColor=#eeeeee;strokeColor=#36393d;" vertex="1" parent="1">
          <mxGeometry x="319" y="2664" width="242" height="60" as="geometry" />
        </mxCell>
        <mxCell id="jmJA5LSK7QcHxx7J2Bmm-98" value="" style="endArrow=classic;html=1;rounded=0;exitX=0.513;exitY=1.006;exitDx=0;exitDy=0;exitPerimeter=0;entryX=0.509;entryY=0.015;entryDx=0;entryDy=0;entryPerimeter=0;" edge="1" parent="1" source="jmJA5LSK7QcHxx7J2Bmm-76" target="jmJA5LSK7QcHxx7J2Bmm-66">
          <mxGeometry width="50" height="50" relative="1" as="geometry">
            <mxPoint x="415" y="2771" as="sourcePoint" />
            <mxPoint x="465" y="2721" as="targetPoint" />
          </mxGeometry>
        </mxCell>
      </root>
    </mxGraphModel>
  </diagram>
</mxfile>
